<?xml version="1.0" encoding="utf-8"?>
<svg xmlns="http://www.w3.org/2000/svg" viewBox="0 0 108 108">
	<path display="inline" stroke-width="6.34306" stroke-linecap="round" stroke-linejoin="round" stroke-miterlimit="3.8" d="M 18.183594,0 C 8.1104078,0 0,8.1104078 0,18.183594 V 89.816406 C 0,99.889592 8.1104078,108 18.183594,108 H 89.816406 C 99.889592,108 108,99.889592 108,89.816406 V 18.183594 C 108,8.1104078 99.889592,0 89.816406,0 Z m 58.6875,34.486328 c 0.994703,-3.68e-4 1.948799,0.394479 2.652344,1.097656 1.464089,1.464401 1.464089,3.838334 0,5.302735 L 47.726562,72.683594 c -1.464487,1.463881 -3.838247,1.463881 -5.302734,0 L 28.605469,58.865234 c -1.464088,-1.464401 -1.464088,-3.838333 0,-5.302734 1.464401,-1.464088 3.838333,-1.464088 5.302734,0 L 45.076172,64.728516 74.220703,35.583984 c 0.703066,-0.702699 1.656365,-1.097506 2.650391,-1.097656 z"/>
</svg>
