<?xml version="1.0" encoding="utf-8"?>
<svg xmlns="http://www.w3.org/2000/svg" viewBox="0 0 146 142">
	<path display="inline" stroke-width="7.58606" stroke-linecap="round" stroke-linejoin="round" stroke-miterlimit="3.8" d="M 18.183594,0 C 8.1104078,0 0,8.1104078 0,18.183594 V 123.81641 C 0,133.8896 8.1104078,142 18.183594,142 H 127.81641 C 137.8896,142 146,133.8896 146,123.81641 V 18.183594 C 146,8.1104078 137.8896,0 127.81641,0 Z m 77.623047,51.351562 c 0.9947,-3.68e-4 1.948803,0.39448 2.652343,1.097657 1.464089,1.464401 1.464089,3.838333 0,5.302734 L 66.662109,89.548828 c -1.464487,1.463881 -3.838247,1.463881 -5.302734,0 L 47.541016,75.730469 c -1.46409,-1.464401 -1.46409,-3.838334 0,-5.302735 1.4644,-1.464088 3.838334,-1.464088 5.302734,0 L 64.011719,81.59375 93.15625,52.449219 c 0.70306,-0.702699 1.656361,-1.097506 2.650391,-1.097657 z" />
</svg>
