<?xml version="1.0" encoding="utf-8"?>
<svg xmlns="http://www.w3.org/2000/svg" viewBox="0 0 200 142">
	<path display="inline" stroke-width="12.7911" stroke-linecap="round" stroke-linejoin="round" stroke-miterlimit="3.8" d="M 18.046875,0 C 8.0494059,0 0,8.0494059 0,18.046875 V 123.95312 C 0,133.9506 8.0494059,142 18.046875,142 H 181.95312 C 191.9506,142 200,133.9506 200,123.95312 V 18.046875 C 200,8.0494059 191.9506,0 181.95312,0 Z M 122.80664,51.351562 c 0.9947,-3.68e-4 1.9488,0.39448 2.65234,1.097657 1.46409,1.464401 1.46409,3.838333 0,5.302734 L 93.662109,89.548828 c -1.46448,1.463881 -3.838244,1.463881 -5.302734,0 L 74.541016,75.730469 c -1.46409,-1.464401 -1.46409,-3.838334 0,-5.302735 1.4644,-1.464088 3.838334,-1.464088 5.302734,0 L 91.011719,81.59375 120.15625,52.449219 c 0.70307,-0.702699 1.65636,-1.097506 2.65039,-1.097657 z"/>
</svg>
