<?xml version="1.0" encoding="UTF-8" standalone="no"?>
<svg
   viewBox="0 0 1080 645"
   version="1.1"
   id="svg23"
   sodipodi:docname="key_num_dark.svg"
   inkscape:version="1.4.2 (ebf0e940d0, 2025-05-08)"
   xmlns:inkscape="http://www.inkscape.org/namespaces/inkscape"
   xmlns:sodipodi="http://sodipodi.sourceforge.net/DTD/sodipodi-0.dtd"
   xmlns="http://www.w3.org/2000/svg"
   xmlns:svg="http://www.w3.org/2000/svg">
  <defs
     id="defs23" />
  <sodipodi:namedview
     id="namedview23"
     pagecolor="#ffffff"
     bordercolor="#000000"
     borderopacity="0.25"
     inkscape:showpageshadow="2"
     inkscape:pageopacity="0.0"
     inkscape:pagecheckerboard="0"
     inkscape:deskcolor="#d1d1d1"
     inkscape:zoom="0.93333333"
     inkscape:cx="385.71429"
     inkscape:cy="251.78571"
     inkscape:window-width="2349"
     inkscape:window-height="1412"
     inkscape:window-x="0"
     inkscape:window-y="0"
     inkscape:window-maximized="0"
     inkscape:current-layer="svg23" />
  <rect
     fill="#202124"
     fill-opacity="1"
     stroke-linecap="round"
     stroke-width="15.3911"
     width="1080.0"
     height="645.0"
     x="-3.2000000032894604e-05"
     y="4.500000000007276e-05"
     ry="0"
     id="rect1"
     style="fill:#100c09;fill-opacity:1" />
  <rect
     fill="#242528"
     fill-opacity="1"
     stroke-linecap="round"
     stroke-width="16.2032"
     width="200.0"
     height="142.0"
     x="224.99996"
     y="491.00003000000004"
     ry="17.819416"
     id="rect2"
     style="fill:#1b1917;fill-opacity:1" />
  <rect
     fill="#2A2B2E"
     fill-opacity="1"
     stroke-linecap="round"
     stroke-width="16.2032"
     width="200.0"
     height="142.0"
     x="439.99999"
     y="330.00003000000004"
     ry="17.819416"
     id="rect3"
     style="fill:#1f1811;fill-opacity:1" />
  <rect
     fill="#2A2B2E"
     fill-opacity="1"
     stroke-linecap="round"
     stroke-width="16.2032"
     width="200.0"
     height="142.0"
     x="654.99999"
     y="330.00003000000004"
     ry="17.819416"
     id="rect4"
     style="fill:#1f1811;fill-opacity:1" />
  <rect
     fill="#2A2B2E"
     fill-opacity="1"
     stroke-linecap="round"
     stroke-width="16.2032"
     width="200.0"
     height="142.0"
     x="224.99996"
     y="330.00003000000004"
     ry="17.819416"
     id="rect5"
     style="fill:#1f1811;fill-opacity:1" />
  <rect
     fill="#2A2B2E"
     fill-opacity="1"
     stroke-linecap="round"
     stroke-width="16.2032"
     width="200.0"
     height="142.0"
     x="439.99996"
     y="169.00005000000002"
     ry="17.819416"
     id="rect6"
     style="fill:#1f1811;fill-opacity:1" />
  <rect
     fill="#2A2B2E"
     fill-opacity="1"
     stroke-linecap="round"
     stroke-width="16.2032"
     width="200.0"
     height="142.0"
     x="654.99999"
     y="169.00005000000002"
     ry="17.819416"
     id="rect7"
     style="fill:#1f1811;fill-opacity:1" />
  <rect
     fill="#2A2B2E"
     fill-opacity="1"
     stroke-linecap="round"
     stroke-width="16.2032"
     width="200.0"
     height="142.0"
     x="224.99996"
     y="169.00005000000002"
     ry="17.819416"
     id="rect8"
     style="fill:#1f1811;fill-opacity:1" />
  <rect
     fill="#2A2B2E"
     fill-opacity="1"
     stroke-linecap="round"
     stroke-width="16.2032"
     width="200.0"
     height="142.0"
     x="439.99996"
     y="491.00003000000004"
     ry="17.819416"
     id="rect9"
     style="fill:#1f1811;fill-opacity:1" />
  <rect
     fill="#2A2B2E"
     fill-opacity="1"
     stroke-linecap="round"
     stroke-width="16.2032"
     width="200.0"
     height="142.0"
     x="654.99999"
     y="8.000045"
     ry="17.819416"
     id="rect10"
     style="fill:#1f1811;fill-opacity:1" />
  <rect
     fill="#2A2B2E"
     fill-opacity="1"
     stroke-linecap="round"
     stroke-width="16.2032"
     width="200.0"
     height="142.0"
     x="439.99996"
     y="8.000045"
     ry="17.819416"
     id="rect11"
     style="fill:#1f1811;fill-opacity:1" />
  <rect
     fill="#2A2B2E"
     fill-opacity="1"
     stroke-linecap="round"
     stroke-width="16.2032"
     width="200.0"
     height="142.0"
     x="224.99996"
     y="8.000045"
     ry="17.819416"
     id="rect12"
     style="fill:#1f1811;fill-opacity:1" />
  <path
     fill="#1E1F22"
     fill-opacity="1"
     stroke-linecap="round"
     stroke-width="16.4298"
     d="M 440 454.18 L 440 457.678 C 440 467.828 448.172 476 458.322 476 L 621.678 476 C 631.828 476 640 467.828 640 457.678 L 640 454.18 C 640 464.052 632.052 472 622.18 472 L 457.82 472 C 447.948 472 440 464.052 440 454.18 Z"
     id="path12"
     style="fill:#1f1811;fill-opacity:0.54509807" />
  <path
     fill="#1E1F22"
     fill-opacity="1"
     stroke-linecap="round"
     stroke-width="16.4298"
     d="M 655 293.18 L 655 296.678 C 655 306.828 663.172 315 673.322 315 L 836.678 315 C 846.828 315 855 306.828 855 296.678 L 855 293.18 C 855 303.052 847.052 311 837.18 311 L 672.82 311 C 662.948 311 655 303.052 655 293.18 Z"
     id="path13"
     style="fill:#1f1811;fill-opacity:0.54509807" />
  <path
     fill="#1E1F22"
     fill-opacity="1"
     stroke-linecap="round"
     stroke-width="16.4298"
     d="M 225 454.18 L 225 457.678 C 225 467.828 233.172 476 243.322 476 L 406.678 476 C 416.828 476 425 467.828 425 457.678 L 425 454.18 C 425 464.052 417.052 472 407.18 472 L 242.82 472 C 232.948 472 225 464.052 225 454.18 Z"
     id="path14"
     style="fill:#1f1811;fill-opacity:0.54509807" />
  <path
     fill="#1E1F22"
     fill-opacity="1"
     stroke-linecap="round"
     stroke-width="16.4298"
     d="M 440 293.18 L 440 296.678 C 440 306.828 448.172 315 458.322 315 L 621.678 315 C 631.828 315 640 306.828 640 296.678 L 640 293.18 C 640 303.052 632.052 311 622.18 311 L 457.82 311 C 447.948 311 440 303.052 440 293.18 Z"
     id="path15"
     style="fill:#1f1811;fill-opacity:0.54509807" />
  <path
     fill="#1E1F22"
     fill-opacity="1"
     stroke-linecap="round"
     stroke-width="16.4298"
     d="M 225 293.18 L 225 296.678 C 225 306.828 233.172 315 243.322 315 L 406.678 315 C 416.828 315 425 306.828 425 296.678 L 425 293.18 C 425 303.052 417.052 311 407.18 311 L 242.82 311 C 232.948 311 225 303.052 225 293.18 Z"
     id="path16"
     style="fill:#1f1811;fill-opacity:0.54509807" />
  <path
     fill="#1E1F22"
     fill-opacity="1"
     stroke-linecap="round"
     stroke-width="16.4298"
     d="M 655 132.18 L 655 135.678 C 655 145.828 663.172 154 673.322 154 L 836.678 154 C 846.828 154 855 145.828 855 135.678 L 855 132.18 C 855 142.052 847.052 150 837.18 150 L 672.82 150 C 662.948 150 655 142.052 655 132.18 Z"
     id="path17"
     style="fill:#1f1811;fill-opacity:0.54509807" />
  <path
     fill="#1E1F22"
     fill-opacity="1"
     stroke-linecap="round"
     stroke-width="16.4298"
     d="M 440 132.18 L 440 135.678 C 440 145.828 448.172 154 458.322 154 L 621.678 154 C 631.828 154 640 145.828 640 135.678 L 640 132.18 C 640 142.052 632.052 150 622.18 150 L 457.82 150 C 447.948 150 440 142.052 440 132.18 Z"
     id="path18"
     style="fill:#1f1811;fill-opacity:0.54509807" />
  <path
     fill="#1E1F22"
     fill-opacity="1"
     stroke-linecap="round"
     stroke-width="16.4298"
     d="M 225 615.18 L 225 618.678 C 225 628.828 233.172 637 243.322 637 L 406.678 637 C 416.828 637 425 628.828 425 618.678 L 425 615.18 C 425 625.052 417.052 633 407.18 633 L 242.82 633 C 232.948 633 225 625.052 225 615.18 Z"
     id="path19"
     style="fill:#1f1811;fill-opacity:0.54509807" />
  <path
     fill="#1E1F22"
     fill-opacity="1"
     stroke-linecap="round"
     stroke-width="16.4298"
     d="M 440 615.18 L 440 618.678 C 440 628.828 448.172 637 458.322 637 L 621.678 637 C 631.828 637 640 628.828 640 618.678 L 640 615.18 C 640 625.052 632.052 633 622.18 633 L 457.82 633 C 447.948 633 440 625.052 440 615.18 Z"
     id="path20"
     style="fill:#1f1811;fill-opacity:0.54509807" />
  <path
     fill="#1E1F22"
     fill-opacity="1"
     stroke-linecap="round"
     stroke-width="16.4298"
     d="M 655 615.18 L 655 618.678 C 655 628.828 663.172 637 673.322 637 L 836.678 637 C 846.828 637 855 628.828 855 618.678 L 855 615.18 C 855 625.052 847.052 633 837.18 633 L 672.82 633 C 662.948 633 655 625.052 655 615.18 Z"
     id="path21"
     style="fill:#1f1811;fill-opacity:0.54509807" />
  <path
     fill="#1E1F22"
     fill-opacity="1"
     stroke-linecap="round"
     stroke-width="16.4298"
     d="M 225 132.18 L 225 135.678 C 225 145.828 233.172 154 243.322 154 L 406.678 154 C 416.828 154 425 145.828 425 135.678 L 425 132.18 C 425 142.052 417.052 150 407.18 150 L 242.82 150 C 232.948 150 225 142.052 225 132.18 Z"
     id="path22"
     style="fill:#1f1811;fill-opacity:0.54509807" />
  <path
     fill="#1E1F22"
     fill-opacity="1"
     stroke-linecap="round"
     stroke-width="16.4298"
     d="M 655 454.18 L 655 457.678 C 655 467.828 663.172 476 673.322 476 L 836.678 476 C 846.828 476 855 467.828 855 457.678 L 855 454.18 C 855 464.052 847.052 472 837.18 472 L 672.82 472 C 662.948 472 655 464.052 655 454.18 Z"
     id="path23"
     style="fill:#1f1811;fill-opacity:0.54509807" />
</svg>
