<?xml version="1.0" encoding="utf-8"?>
<svg xmlns="http://www.w3.org/2000/svg" viewBox="0 0 1080 645">
	<rect display="inline" fill="#202124" fill-opacity="1" stroke="none" width="1080" height="645" x="0" y="0" ry="0"/>
	<g id="g1" fill="#2a2b2e" fill-opacity="1">
		<rect width="92" height="142" x="170" y="330" ry="19.423672"/>
		<rect width="92" height="142" x="278" y="330" ry="19.423672"/>
		<rect width="92" height="142" x="386" y="330" ry="19.423672"/>
		<rect width="92" height="142" x="494" y="330" ry="19.423672"/>
		<rect width="92" height="142" x="602" y="330" ry="19.423672"/>
		<rect width="92" height="142" x="710" y="330" ry="19.423672"/>
		<rect width="92" height="142" x="818" y="330" ry="19.423672"/>
		<rect width="92" height="142" x="980" y="8" ry="19.423672"/>
		<rect width="92" height="142" x="872" y="8" ry="19.423672"/>
		<rect width="92" height="142" x="764" y="8" ry="19.423672"/>
		<rect width="92" height="142" x="656" y="8" ry="19.423672"/>
		<rect width="92" height="142" x="548" y="8" ry="19.423672"/>
		<rect width="92" height="142" x="440" y="8" ry="19.423672"/>
		<rect width="92" height="142" x="332" y="8" ry="19.423672"/>
		<rect width="92" height="142" x="224" y="6.8315215" ry="19.423672"/>
		<rect width="92" height="142" x="116" y="8" ry="19.423672"/>
		<rect width="92" height="142" x="8" y="8" ry="19.423672"/>
		<rect width="92" height="142" x="62" y="169" ry="19.423672"/>
		<rect width="92" height="142" x="170" y="169" ry="19.423672"/>
		<rect width="92" height="142" x="278" y="169" ry="19.423672"/>
		<rect width="92" height="142" x="386" y="169" ry="19.423672"/>
		<rect width="92" height="142" x="494" y="169" ry="19.423672"/>
		<rect width="92" height="142" x="602" y="169" ry="19.423672"/>
		<rect width="92" height="142" x="710" y="169" ry="19.423672"/>
		<rect width="92" height="142" x="818" y="169" ry="19.423672"/>
		<rect width="524.09998" height="142" x="278" y="491" ry="19.117769"/>
		<rect width="92" height="142" x="926" y="169" ry="19.423672"/>
	</g>
	<g id="g2" fill="#242528" fill-opacity="1">
		<rect width="146" height="142" x="8" y="491" ry="18.410219"/>
		<rect width="146" height="142" x="8" y="330" ry="18.410221"/>
		<rect width="92" height="142" x="818" y="491" ry="19.423672"/>
		<rect width="92" height="142" x="170" y="491" ry="19.423672"/>
		<rect width="146" height="142" x="926" y="330" ry="18.410219"/>
	</g>
	<g id="g3" fill="#1b1c1f" fill-opacity="1">
		<path d="m 8.0000008,130.57617 v 3.45313 C 8.0000008,145.09313 16.906871,154 27.970704,154 H 80.029302 C 91.093131,154 100,145.09313 100,134.0293 v -3.45313 C 100,141.33689 91.336891,150 80.576171,150 H 27.423829 C 16.663115,150 8.0000008,141.33689 8.0000008,130.57617 Z"/>
		<path d="m 116,130.57617 v 3.45313 C 116,145.09313 124.90687,154 135.9707,154 h 52.0586 C 199.09313,154 208,145.09313 208,134.0293 v -3.45313 C 208,141.33689 199.33689,150 188.57617,150 H 135.42383 C 124.66312,150 116,141.33689 116,130.57617 Z"/>
		<path d="m 332,130.57617 v 3.45313 C 332,145.09313 340.90687,154 351.9707,154 h 52.0586 C 415.09313,154 424,145.09313 424,134.0293 v -3.45313 C 424,141.33689 415.33689,150 404.57617,150 H 351.42383 C 340.66311,150 332,141.33689 332,130.57617 Z"/>
		<path d="m 224,129.4077 v 3.45313 c 0,11.06383 8.90687,19.9707 19.9707,19.9707 h 52.0586 c 11.06383,0 19.9707,-8.90687 19.9707,-19.9707 v -3.45313 c 0,10.76072 -8.66311,19.42383 -19.42383,19.42383 H 243.42383 C 232.66311,148.83153 224,140.16842 224,129.4077 Z"/>
		<path d="m 440,130.57617 v 3.45313 C 440,145.09313 448.90687,154 459.9707,154 h 52.0586 C 523.09313,154 532,145.09313 532,134.0293 v -3.45313 C 532,141.33689 523.33689,150 512.57617,150 H 459.42383 C 448.66311,150 440,141.33689 440,130.57617 Z"/>
		<path d="m 548,130.57617 v 3.45313 C 548,145.09313 556.90687,154 567.9707,154 h 52.0586 C 631.09313,154 640,145.09313 640,134.0293 v -3.45313 C 640,141.33689 631.33689,150 620.57617,150 H 567.42383 C 556.66311,150 548,141.33689 548,130.57617 Z"/>
		<path d="m 656,130.57617 v 3.45313 C 656,145.09313 664.90687,154 675.9707,154 h 52.0586 C 739.09313,154 748,145.09313 748,134.0293 v -3.45313 C 748,141.33689 739.33689,150 728.57617,150 H 675.42383 C 664.66311,150 656,141.33689 656,130.57617 Z"/>
		<path d="m 764,130.57617 v 3.45313 C 764,145.09313 772.90687,154 783.9707,154 h 52.0586 C 847.09313,154 856,145.09313 856,134.0293 v -3.45313 C 856,141.33689 847.33689,150 836.57617,150 H 783.42383 C 772.66311,150 764,141.33689 764,130.57617 Z"/>
		<path d="m 872,130.57617 v 3.45313 C 872,145.09313 880.90687,154 891.9707,154 h 52.0586 C 955.09313,154 964,145.09313 964,134.0293 v -3.45313 C 964,141.33689 955.33689,150 944.57617,150 H 891.42383 C 880.66311,150 872,141.33689 872,130.57617 Z"/>
		<path d="m 980,130.57617 v 3.45313 C 980,145.09313 988.90687,154 999.9707,154 h 52.0586 C 1063.0931,154 1072,145.09313 1072,134.0293 v -3.45313 C 1072,141.33689 1063.3369,150 1052.5762,150 H 999.4238 C 988.66311,150 980,141.33689 980,130.57617 Z"/>
		<path d="m 62.000001,291.57617 v 3.45313 c 0,11.06383 8.90687,19.9707 19.970703,19.9707 H 134.0293 C 145.09313,315 154,306.09313 154,295.0293 v -3.45313 C 154,302.33689 145.33689,311 134.57617,311 H 81.423829 c -10.760714,0 -19.423828,-8.66311 -19.423828,-19.42383 z"/>
		<path d="m 170,291.57617 v 3.45313 C 170,306.09313 178.90687,315 189.9707,315 h 52.0586 C 253.09313,315 262,306.09313 262,295.0293 v -3.45313 C 262,302.33689 253.33689,311 242.57617,311 H 189.42383 C 178.66311,311 170,302.33689 170,291.57617 Z"/>
		<path d="m 278,291.57617 v 3.45313 C 278,306.09313 286.90687,315 297.9707,315 h 52.0586 C 361.09313,315 370,306.09313 370,295.0293 v -3.45313 C 370,302.33689 361.33689,311 350.57617,311 H 297.42383 C 286.66311,311 278,302.33689 278,291.57617 Z"/>
		<path d="m 386,291.57617 v 3.45313 C 386,306.09313 394.90687,315 405.9707,315 h 52.0586 C 469.09313,315 478,306.09313 478,295.0293 v -3.45313 C 478,302.33689 469.33689,311 458.57617,311 H 405.42383 C 394.66311,311 386,302.33689 386,291.57617 Z"/>
		<path d="m 494,291.57617 v 3.45313 C 494,306.09313 502.90687,315 513.9707,315 h 52.0586 C 577.09313,315 586,306.09313 586,295.0293 v -3.45313 C 586,302.33689 577.33689,311 566.57617,311 H 513.42383 C 502.66311,311 494,302.33689 494,291.57617 Z"/>
		<path d="m 602,291.57617 v 3.45313 C 602,306.09313 610.90687,315 621.9707,315 h 52.0586 C 685.09313,315 694,306.09313 694,295.0293 v -3.45313 C 694,302.33689 685.33689,311 674.57617,311 H 621.42383 C 610.66311,311 602,302.33689 602,291.57617 Z"/>
		<path d="m 710,291.57617 v 3.45313 C 710,306.09313 718.90687,315 729.9707,315 h 52.0586 C 793.09313,315 802,306.09313 802,295.0293 v -3.45313 C 802,302.33689 793.33689,311 782.57617,311 H 729.42383 C 718.66311,311 710,302.33689 710,291.57617 Z"/>
		<path d="m 818,291.57617 v 3.45313 C 818,306.09313 826.90687,315 837.9707,315 h 52.0586 C 901.09313,315 910,306.09313 910,295.0293 v -3.45313 C 910,302.33689 901.33689,311 890.57617,311 H 837.42383 C 826.66311,311 818,302.33689 818,291.57617 Z"/>
		<path d="m 925.99999,291.57617 v 3.45313 c 0,11.06383 8.90687,19.9707 19.97069,19.9707 h 52.0586 C 1009.0931,315 1018,306.09313 1018,295.0293 v -3.45313 C 1018,302.33689 1009.3369,311 998.57618,311 h -53.15237 c -10.76072,0 -19.42382,-8.66311 -19.42382,-19.42383 z"/>
		<path d="m 170,452.57617 v 3.45313 C 170,467.09313 178.90687,476 189.9707,476 h 52.0586 C 253.09313,476 262,467.09313 262,456.0293 v -3.45313 C 262,463.33689 253.33689,472 242.57617,472 H 189.42383 C 178.66311,472 170,463.33689 170,452.57617 Z"/>
		<path d="m 278,452.57617 v 3.45313 C 278,467.09313 286.90687,476 297.9707,476 h 52.0586 C 361.09313,476 370,467.09313 370,456.0293 v -3.45313 C 370,463.33689 361.33689,472 350.57617,472 H 297.42383 C 286.66311,472 278,463.33689 278,452.57617 Z"/>
		<path d="m 386,452.57617 v 3.45313 C 386,467.09313 394.90687,476 405.9707,476 h 52.0586 C 469.09313,476 478,467.09313 478,456.0293 v -3.45313 C 478,463.33689 469.33689,472 458.57617,472 H 405.42383 C 394.66311,472 386,463.33689 386,452.57617 Z"/>
		<path d="m 494,452.57617 v 3.45313 C 494,467.09313 502.90687,476 513.9707,476 h 52.0586 C 577.09313,476 586,467.09313 586,456.0293 v -3.45313 C 586,463.33689 577.33689,472 566.57617,472 H 513.42383 C 502.66311,472 494,463.33689 494,452.57617 Z"/>
		<path d="m 602,452.57617 v 3.45313 C 602,467.09313 610.90687,476 621.9707,476 h 52.0586 C 685.09313,476 694,467.09313 694,456.0293 v -3.45313 C 694,463.33689 685.33689,472 674.57617,472 H 621.42383 C 610.66311,472 602,463.33689 602,452.57617 Z"/>
		<path d="m 710,452.57617 v 3.45313 C 710,467.09313 718.90687,476 729.9707,476 h 52.0586 C 793.09313,476 802,467.09313 802,456.0293 v -3.45313 C 802,463.33689 793.33689,472 782.57617,472 H 729.42383 C 718.66311,472 710,463.33689 710,452.57617 Z"/>
		<path d="m 818,452.57617 v 3.45313 C 818,467.09313 826.90687,476 837.9707,476 h 52.0586 C 901.09313,476 910,467.09313 910,456.0293 v -3.45313 C 910,463.33689 901.33689,472 890.57617,472 H 837.42383 C 826.66311,472 818,463.33689 818,452.57617 Z"/>
		<path d="m 818,613.57617 v 3.45313 C 818,628.09313 826.90687,637 837.9707,637 h 52.0586 C 901.09313,637 910,628.09313 910,617.0293 v -3.45313 C 910,624.33689 901.33689,633 890.57617,633 H 837.42383 C 826.66311,633 818,624.33689 818,613.57617 Z"/>
		<path d="m 278.00018,613.88281 v 3.46094 c 0,10.88959 8.76666,19.65625 19.65625,19.65625 h 484.78711 c 10.88959,0 19.65625,-8.76666 19.65625,-19.65625 v -3.46094 C 802.09979,624.47406 793.57385,633 782.9826,633 H 297.11737 c -10.59125,0 -19.11719,-8.52594 -19.11719,-19.11719 z"/>
		<path d="m 8,453.58984 v 3.48047 C 8,467.55688 16.4431,476 26.9297,476 H 135.0703 C 145.5569,476 154,467.55688 154,457.07031 v -3.48047 C 154,463.78911 145.7891,472 135.5898,472 H 26.4102 C 16.2109,472 8,463.78911 8,453.58984 Z"/>
		<path d="m 926,453.58984 v 3.48047 C 926,467.55688 934.4431,476 944.9297,476 h 108.1406 C 1063.5569,476 1072,467.55688 1072,457.07031 v -3.48047 C 1072,463.78911 1063.7891,472 1053.5898,472 H 944.4102 C 934.2109,472 926,463.78911 926,453.58984 Z"/>
		<path d="m 926,613.576 v 3.48047 c 0,10.48657 8.4431,18.92969 18.9297,18.92969 h 108.1407 c 10.4866,0 18.9297,-8.44312 18.9297,-18.92969 V 613.576 c 0,10.19927 -8.2109,18.41016 -18.4102,18.41016 H 944.4102 C 934.2109,631.98616 926,623.77527 926,613.576 Z"/>
		<path d="m 8,614.58984 v 3.48047 C 8,628.55688 16.4431,637 26.9297,637 H 135.0703 C 145.5569,637 154,628.55688 154,618.07031 v -3.48047 C 154,624.78911 145.7891,633 135.5898,633 H 26.4102 C 16.2109,633 8,624.78911 8,614.58984 Z"/>
		<path d="m 926,449.58984 v 3.48047 C 926,463.55688 934.4431,472 944.9297,472 h 108.1406 C 1063.5569,472 1072,463.55688 1072,453.07031 v -3.48047 C 1072,459.78911 1063.7891,468 1053.5898,468 H 944.4102 C 934.2109,468 926,459.78911 926,449.58984 Z"/>
	</g>
</svg>
