<?xml version="1.0" encoding="utf-8"?>
<svg xmlns="http://www.w3.org/2000/svg" viewBox="0 0 46 46">
	<path fill="#000000" d="M 0.56772 21.4878 L 18.9538 0.490257 C 19.213 0.194152 19.5814 0.0174873 19.9734 0.00123773 C 20.3653 -0.0150119 20.7469 0.130565 21.0295 0.404205 L 23.8073 3.09362 C 24.4119 3.679 24.4487 4.64019 23.8907 5.27064 L 12.051 18.6471 C 11.8744 18.8466 11.8308 19.1317 11.9395 19.3754 C 12.0482 19.6191 12.289 19.7759 12.5546 19.7759 L 44.4974 19.7759 C 44.8959 19.7759 45.2782 19.9352 45.56 20.2186 C 45.8418 20.502 46.0001 20.8864 46.0001 21.2873 L 46.0001 24.713 C 46.0001 25.1138 45.8418 25.4982 45.56 25.7816 C 45.2782 26.0651 44.8959 26.2243 44.4974 26.2243 L 12.5546 26.2243 C 12.289 26.2243 12.0482 26.3811 11.9395 26.6248 C 11.8308 26.8685 11.8744 27.1537 12.051 27.3532 L 23.8907 40.7296 C 24.4487 41.36 24.4119 42.3212 23.8073 42.9066 L 21.0295 45.596 C 20.7469 45.8697 20.3653 46.0152 19.9734 45.999 C 19.5814 45.9827 19.213 45.8061 18.9538 45.51 L 0.56772 24.5124 C -0.189238 23.6479 -0.189238 22.3523 0.56772 21.4878 Z"/>
</svg>
