<?xml version="1.0" encoding="utf-8"?>
<svg xmlns="http://www.w3.org/2000/svg" viewBox="0 0 40 40">
	<path fill="#000000" d="M 0.403914 35.3776 L 15.3776 20.3235 C 15.5574 20.1428 15.5577 19.8511 15.3783 19.67 L 0.401855 4.5498 C 0.144284 4.28975 0.000782831 3.93795 0.00300877 3.57199 C 0.0052347 3.20603 0.153005 2.856 0.41372 2.59911 L 2.6404 0.40508 C 3.18538 -0.131916 4.06125 -0.130084 4.60399 0.409187 L 19.6702 15.3793 C 19.8508 15.5587 20.1425 15.5583 20.3226 15.3784 L 35.3087 0.411686 C 35.8514 -0.130305 36.7282 -0.138135 37.2805 0.394078 L 39.5802 2.61011 C 39.8427 2.86307 39.9928 3.21066 39.997 3.57514 C 40.0012 3.93961 39.859 4.29056 39.6024 4.54948 L 24.6157 19.6701 C 24.4364 19.8511 24.4367 20.1428 24.6164 20.3234 L 39.6004 35.3779 C 39.8582 35.637 40.002 35.9882 40 36.3536 C 39.9979 36.7191 39.8501 37.0686 39.5894 37.3247 L 37.2713 39.6016 C 36.7261 40.1371 35.8508 40.1321 35.3118 39.5904 L 20.3215 24.5251 C 20.2355 24.4386 20.1186 24.3899 19.9966 24.3897 C 19.8746 24.3896 19.7575 24.438 19.6713 24.5242 L 4.60092 39.5929 C 4.34209 39.8517 3.99091 39.9969 3.62486 39.9965 C 3.2588 39.9961 2.90795 39.8501 2.64972 39.5907 L 0.404401 37.3356 C -0.13461 36.7943 -0.134828 35.9192 0.403914 35.3776 Z"/>
</svg>
