<?xml version="1.0" encoding="utf-8"?>
<svg xmlns="http://www.w3.org/2000/svg" viewBox="0 0 48 54">
	<path fill="#000000" d="M 2.96154 8.99837 C 1.3245 8.99693 -0.00142692 7.65402 9.24267e-08 5.9989 C 1.15876e-07 5.2034 0.312563 4.44047 0.868928 3.87796 C 1.42529 3.31545 2.17989 2.99944 2.9667 2.99944 L 3.23966 2.99944 L 14.5862 2.99944 C 14.6599 2.99944 14.7307 2.96981 14.7828 2.91708 C 14.835 2.86434 14.8643 2.79282 14.8643 2.71824 C 14.8766 1.98488 15.1765 1.2865 15.6981 0.776722 C 16.2197 0.266948 16.9202 -0.0124564 17.6456 -2.65452e-05 L 30.3676 -2.65452e-05 C 31.1052 -2.65452e-05 31.8127 0.296237 32.3343 0.823589 C 32.8558 1.35094 33.1489 2.06618 33.1489 2.81197 C 33.1745 2.94139 33.299 3.02532 33.427 2.99944 L 44.7735 2.99944 L 45.0346 2.99944 C 45.8213 2.99944 46.5757 3.3155 47.1319 3.87804 C 47.6881 4.44059 48.0003 5.20352 48 5.9989 L 48 5.9989 C 47.9993 7.65568 46.6707 8.99837 45.032 8.99837 C 44.9608 9.00101 44.8936 9.03211 44.8452 9.08485 C 44.7967 9.13758 44.7709 9.20763 44.7735 9.27957 L 44.7735 49.314 C 44.7735 50.5569 44.2851 51.7489 43.4158 52.6276 C 42.5464 53.5063 41.3673 53.9999 40.138 53.9996 L 7.87514 53.9915 C 5.31485 53.9909 3.23966 51.8922 3.23966 49.3037 L 3.23966 9.27957 C 3.23966 9.12427 3.11514 8.99837 2.96154 8.99837 Z M 37.913 8.99837 L 10.1002 8.99837 C 9.85429 8.99837 9.61848 9.09712 9.44461 9.27291 C 9.27075 9.44869 9.17307 9.68711 9.17307 9.9357 L 9.17307 47.0541 C 9.17307 47.5718 9.58815 47.9914 10.1002 47.9914 L 37.913 47.9914 C 38.1589 47.9914 38.3947 47.8927 38.5686 47.7169 C 38.7424 47.5411 38.8401 47.3027 38.8401 47.0541 L 38.8401 9.9357 C 38.8401 9.68711 38.7424 9.44869 38.5686 9.27291 C 38.3947 9.09712 38.1589 8.99837 37.913 8.99837 Z M 15.1065 39.0868 L 15.1065 17.6582 C 15.1065 16.8875 15.4093 16.1485 15.9483 15.6035 C 16.4872 15.0586 17.2182 14.7525 17.9805 14.7525 L 18.2586 14.7525 C 18.9962 14.7525 19.7037 15.0487 20.2253 15.5761 C 20.7469 16.1034 21.0399 16.8187 21.0399 17.5645 L 21.0399 39.0868 C 21.0399 39.8574 20.7371 40.5965 20.1981 41.1414 C 19.6591 41.6864 18.9281 41.9925 18.1659 41.9925 L 17.9805 41.9925 C 17.2182 41.9925 16.4872 41.6864 15.9483 41.1414 C 15.4093 40.5965 15.1065 39.8574 15.1065 39.0868 Z M 26.9733 39.0868 L 26.9733 17.6582 C 26.9733 16.8875 27.2761 16.1485 27.8151 15.6035 C 28.354 15.0586 29.0851 14.7525 29.8473 14.7525 L 30.0327 14.7525 C 30.7949 14.7525 31.526 15.0586 32.0649 15.6035 C 32.6039 16.1485 32.9067 16.8875 32.9067 17.6582 L 32.9067 39.0868 C 32.9067 39.8574 32.6039 40.5965 32.0649 41.1414 C 31.526 41.6864 30.7949 41.9925 30.0327 41.9925 L 29.8473 41.9925 C 29.0851 41.9925 28.354 41.6864 27.8151 41.1414 C 27.2761 40.5965 26.9733 39.8574 26.9733 39.0868 Z"/>
</svg>
