<?xml version="1.0" encoding="utf-8"?>
<svg xmlns="http://www.w3.org/2000/svg" viewBox="0 0 54 54">
	<path fill="#000000" d="M 0 51.7557 L 0 42.6696 C 0 42.1579 0.292984 41.4488 0.654433 41.0859 C 4.69642 37.0275 26.5428 15.0974 40.3431 1.34398 C 42.1571 -0.463835 45.0828 -0.445127 46.8757 1.3836 L 52.6637 7.28745 C 54.4614 9.12106 54.443 12.058 52.6224 13.869 L 12.9375 53.3459 C 12.5165 53.7648 11.9462 54 11.3517 54 L 2.24856 54 C 1.65417 54 1.08414 53.7643 0.663844 53.3448 L 0.656409 53.3374 C 0.236115 52.9179 -2.14901e-06 52.3489 -2.60434e-15 51.7557 Z M 38.9221 18.3134 L 35.8763 15.0774 C 35.7095 14.9002 35.4779 14.798 35.2344 14.7941 C 34.9909 14.7902 34.7561 14.8849 34.5837 15.0567 L 6.5981 42.9432 C 6.17749 43.3623 5.94114 43.9312 5.94114 44.5244 L 5.94114 47.1435 C 5.94114 47.3892 6.03894 47.6249 6.21303 47.7986 C 6.38712 47.9724 6.62324 48.07 6.86944 48.07 L 9.44471 48.07 C 10.0392 48.07 10.6093 47.8346 11.03 47.4154 L 38.9008 19.6433 C 39.2668 19.2786 39.2762 18.6896 38.9221 18.3134 Z"/>
</svg>
