<?xml version="1.0" encoding="utf-8"?>
<svg xmlns="http://www.w3.org/2000/svg" viewBox="0 0 48 64">
	<path fill="#000000" d="M 22.9297 0.00390625 C 21.9783 0.0690028 20.5084 0.596605 19.6309 0.96875 C 19.0117 1.23132 18.3475 1.53448 17.9063 1.79687 C 17.2317 2.19813 16.2125 3.02756 15.6172 3.52734 C 15.3516 3.75036 14.931 4.12308 14.6855 4.36719 C 12.6625 6.37939 10.9136 9.22599 9.91992 11.0078 C 9.41557 11.9122 9.72828 13.1538 10.5723 13.7539 L 12.1113 14.8477 C 13.1708 15.6011 14.5292 15.2824 15.168 14.1504 C 15.3082 13.9019 15.448 13.6568 15.5918 13.4102 C 16.2467 12.2874 17.3402 10.6477 18.0508 9.77148 C 18.3769 9.36932 18.8954 8.70908 19.2344 8.31836 C 19.5109 7.99962 19.8535 7.69374 20.5508 7.28906 C 20.747 7.17523 20.9289 7.06108 21.1074 6.94922 C 22.5843 6.02369 24.6486 5.73636 25.3711 5.79297 C 26.8375 5.90787 28.9555 7.23047 30.0371 8.23437 C 30.3567 8.53102 30.6702 8.84157 30.9668 9.14844 C 32.2072 10.4316 33.0853 13.0253 33.0684 14.8105 L 33 21.9961 L 6.8125 21.9961 C 5.01169 21.9961 3.28509 22.7128 2.01172 23.9863 L 1.98828 24.0078 C 0.714911 25.2813 1.07337e-07 27.0096 -1e-13 28.8105 L -1e-13 57.1875 C 8.77359e-07 58.9884 0.714912 60.7148 1.98828 61.9883 L 2.01172 62.0117 C 3.28509 63.2852 5.01169 64 6.8125 64 L 41.1875 64 C 42.9883 64 44.715 63.2852 45.9883 62.0117 L 46.0117 61.9883 C 47.285 60.7148 48 58.9884 48 57.1875 L 48 28.8105 C 48 27.0096 47.285 25.2813 46.0117 24.0078 L 45.9883 23.9863 C 44.815 22.7543 43.2008 22.0375 41.5 21.9961 L 39 21.9961 C 39 19.5517 39.07 17.0694 38.9512 14.6152 C 38.8968 13.4927 38.6406 11.6874 38.3457 10.6035 C 38.2149 10.1226 38.0719 9.64682 37.9219 9.17969 C 36.8185 5.74291 32.9352 2.11738 29.8086 0.878906 C 28.9207 0.527204 27.4294 0.182939 26.4766 0.125 C 25.9874 0.095249 25.4399 0.0648378 24.9004 0.0410156 C 23.9482 -0.00102983 23.0646 -0.00532525 22.9297 0.00390625 Z M 7.875 27.998 L 40.125 27.998 C 40.6223 27.998 41.0996 28.1952 41.4512 28.5469 C 41.8029 28.8985 42 29.3757 42 29.873 L 42 56.125 C 42 56.6223 41.8029 57.0995 41.4512 57.4512 C 41.0996 57.8029 40.6223 58 40.125 58 L 7.875 58 C 7.37772 58 6.90047 57.8029 6.54883 57.4512 C 6.1972 57.0995 6 56.6223 6 56.125 L 6 29.873 C 6 28.8374 6.83946 27.998 7.875 27.998 Z M 24 36.5762 C 22.4351 36.5761 20.9342 37.1977 19.8277 38.3042 C 18.7211 39.4108 18.0995 40.9116 18.0996 42.4766 C 18.0995 44.0415 18.7211 45.5423 19.8277 46.6489 C 20.9342 47.7554 22.4351 48.3771 24 48.377 C 25.5649 48.3771 27.0658 47.7554 28.1723 46.6489 C 29.2789 45.5423 29.9005 44.0415 29.9004 42.4766 C 29.9005 40.9116 29.2789 39.4108 28.1723 38.3042 C 27.0658 37.1977 25.5649 36.5761 24 36.5762 Z"/>
</svg>
