<?xml version="1.0" encoding="utf-8"?>
<svg xmlns="http://www.w3.org/2000/svg" viewBox="0 0 48 64">
	<path fill="#000000" d="M 23.8613 5.33383e-08 C 23.1147 0.00366797 22.3614 0.0476095 21.6309 0.201172 C 20.0491 0.533664 18.4846 1.03059 17.0371 1.74805 C 15.6483 2.4364 14.3 3.27614 13.1895 4.35547 C 12.0404 5.47224 11.0766 6.81231 10.3809 8.2539 C 9.69079 9.68373 9.09636 11.2551 9.08789 12.8359 C 9.07139 15.9152 9 22.1328 9 22.1328 L 5.625 22.1328 C 4.13314 22.1328 2.70239 22.7236 1.64749 23.7752 C 0.592595 24.8268 -2.56103e-05 26.2531 -1.83981e-14 27.7402 L -1.8125e-14 58.3926 C -2.56103e-05 59.8797 0.592595 61.306 1.64749 62.3576 C 2.70239 63.4092 4.13314 64 5.625 64 L 42.375 64 C 43.8669 64 45.2976 63.4092 46.3525 62.3576 C 47.4074 61.306 48 59.8797 48 58.3926 L 48 27.7402 C 48 26.2531 47.4074 24.8268 46.3525 23.7752 C 45.2976 22.7236 43.8669 22.1328 42.375 22.1328 L 39 22.1328 L 39 16 C 39 14.2284 38.5535 11.4263 37.8906 9.7832 C 37.5799 9.01291 37.2429 8.24935 36.9395 7.70508 C 36.3101 6.57645 35.5557 5.49781 34.6465 4.57812 C 33.5425 3.46144 32.2678 2.48373 30.8789 1.74805 C 29.475 1.00441 27.9254 0.524927 26.3691 0.201172 C 25.5487 0.0304862 24.6995 -0.00411759 23.8613 5.33383e-08 Z M 23.6094 6.11523 C 24.591 6.10101 25.5529 6.17292 26.2461 6.32422 C 26.5184 6.38365 26.9492 6.51922 27.2129 6.60937 C 27.615 6.74682 28.0159 6.89741 28.4043 7.07226 C 29.426 7.53222 30.8121 8.74835 31.4727 9.65234 C 31.5362 9.73927 31.5984 9.82668 31.6602 9.91406 C 32.4528 11.0362 32.9521 13.1222 32.9492 14.4941 C 32.9445 16.7824 32.9998 19.7848 33 22.1328 L 15 22.1328 L 15 14.0371 C 15 12.8442 15.4629 11.0256 16.123 10.0312 C 16.3164 9.73993 16.5222 9.44643 16.7266 9.17773 C 17.0579 8.74216 17.6896 8.11316 18.127 7.7832 C 18.3243 7.63433 18.5284 7.49491 18.7383 7.36328 C 19.4971 6.88738 20.4791 6.51789 20.8535 6.42383 C 21.6251 6.23 22.6278 6.12946 23.6094 6.11523 Z M 8.34375 28.1133 L 39.6563 28.1133 C 40.9505 28.1133 41.9998 29.159 42 30.4492 L 42 55.6816 C 42.0004 56.3015 41.7536 56.8962 41.3141 57.3347 C 40.8745 57.7732 40.2781 58.0195 39.6563 58.0195 L 8.34375 58.0195 C 7.72189 58.0195 7.12552 57.7732 6.68593 57.3347 C 6.24635 56.8962 5.9996 56.3015 6 55.6816 L 6 30.4492 C 6.00025 29.159 7.04951 28.1133 8.34375 28.1133 Z M 24 36.5762 C 22.4351 36.5761 20.9342 37.1977 19.8277 38.3042 C 18.7211 39.4108 18.0995 40.9116 18.0996 42.4765 C 18.0995 44.0415 18.7211 45.5423 19.8277 46.6489 C 20.9342 47.7554 22.4351 48.377 24 48.3769 C 25.5649 48.377 27.0658 47.7554 28.1723 46.6489 C 29.2789 45.5423 29.9005 44.0415 29.9004 42.4765 C 29.9005 40.9116 29.2789 39.4108 28.1723 38.3042 C 27.0658 37.1977 25.5649 36.5761 24 36.5762 Z"/>
</svg>
