<?xml version="1.0" encoding="utf-8"?>
<svg xmlns="http://www.w3.org/2000/svg" viewBox="0 0 12 48">
	<path fill="#000000" d="M 6 0 A 6 5.9031057 0 0 0 0 5.9023438 A 6 5.9031057 0 0 0 6 11.806641 A 6 5.9031057 0 0 0 12 5.9023438 A 6 5.9031057 0 0 0 6 0 z M 6 18.097656 A 6 5.9031057 0 0 0 0 24 A 6 5.9031057 0 0 0 6 29.902344 A 6 5.9031057 0 0 0 12 24 A 6 5.9031057 0 0 0 6 18.097656 z M 6 36.193359 A 6 5.9031057 0 0 0 0 42.097656 A 6 5.9031057 0 0 0 6 48 A 6 5.9031057 0 0 0 12 42.097656 A 6 5.9031057 0 0 0 6 36.193359 z"/>
</svg>
