<?xml version="1.0" encoding="utf-8"?>
<svg xmlns="http://www.w3.org/2000/svg" viewBox="0 0 54 54">
	<path fill="#000000" d="M 18.1046 52.3531 C 8.48182 48.8803 0 37.0732 0 27.1505 C 0 18.425 6.57947 5.98525 10.4039 7.47996 C 12.2825 8.2142 12.6524 11.8053 10.9592 12.8711 C 8.91089 14.1605 6.07926 21.9818 6.05696 26.4117 C 5.99877 37.9676 15.6417 48.1476 26.6462 48.1476 C 42.2111 48.1476 52.6871 32.0112 46.35 17.7976 C 45.3133 15.4725 43.9654 13.2556 43.3546 12.8711 C 41.6614 11.8053 42.0313 8.2142 43.9099 7.47996 C 46.4369 6.49235 50.9595 12.334 52.8816 19.0682 C 59.0158 40.5593 38.8651 59.8453 18.1046 52.3531 Z M 24.4035 25.5976 L 24.4035 2.88117 C 24.4035 2.11704 24.7015 1.3842 25.232 0.843875 C 25.7626 0.30355 26.4821 -1.93069e-06 27.2323 -1.93069e-06 C 28.753 0.0424309 29.952 1.33238 29.9103 2.88117 L 29.9103 25.5976 C 29.9103 26.3618 29.6123 27.0946 29.0818 27.6349 C 28.5513 28.1753 27.8317 28.4788 27.0815 28.4788 C 25.5608 28.4364 24.3618 27.1464 24.4035 25.5976 Z"/>
</svg>
