<?xml version="1.0" encoding="utf-8"?>
<svg xmlns="http://www.w3.org/2000/svg" viewBox="0 0 48 48">
	<path fill="#000000" d="M 18.1246 47.122 C 11.6899 45.1796 5.73446 40.5117 3.03308 35.2931 C 1.7223 32.7609 2.49456 29.9318 4.49657 29.9318 C 5.91263 29.9318 6.56893 30.5491 10.0258 35.1322 C 12.6707 38.6389 19.8205 42.0194 24.5923 42.0194 C 31.1446 42.0194 37.3276 38.0395 40.5702 31.7347 C 46.1449 20.8955 38.4558 7.1479 26.163 5.97574 C 21.6025 5.54088 14.8044 9.30148 13.0821 10.3062 C 12.8557 10.4382 12.8237 10.6995 13.0081 10.8853 L 18.9003 16.8245 C 19.1268 17.0529 19.1936 17.3938 19.0697 17.6897 C 18.9457 17.9857 18.6553 18.1793 18.3323 18.1811 L 1.90319 18.2735 C 1.39942 18.2763 0.915313 18.0797 0.558086 17.7272 C 0.200858 17.3747 -3.34617e-07 16.8954 -3.51403e-07 16.3955 L -3.51403e-07 0.80932 C -3.44383e-07 0.47874 0.196523 0.179283 0.501197 0.0456101 C 0.805871 -0.088063 1.16133 -0.0307826 1.40772 0.191693 L 7.48409 5.67818 C 7.68949 5.86364 7.99739 5.88191 8.2236 5.72206 L 10.847 3.8683 C 18.9218 -1.83756 31.6309 -1.15281 39.3499 5.404 C 45.5192 10.6444 48 15.9455 48 23.888 C 48 31.7812 45.5217 37.1295 39.4899 42.2531 C 33.4207 47.4084 25.2452 49.2715 18.1246 47.122 Z"/>
</svg>
