<?xml version="1.0" encoding="utf-8"?>
<svg xmlns="http://www.w3.org/2000/svg" viewBox="0 0 51 51">
	<path fill="#000000" d="M 26.4516 38.1434 C 25.1117 38.5928 23.3669 38.8696 21.2351 38.9703 C 20.1771 39.0202 18.4588 39.0211 17.4001 38.987 C 14.1465 38.8823 12.4715 38.4288 10.1625 36.9906 C 9.26306 36.4304 7.85987 35.4346 7.02988 34.7752 C 2.40316 31.0993 0.393178 27.2142 0.0507655 21.2861 C -0.010448 20.2264 -0.011677 18.5037 0.0225299 17.4426 C 0.125908 14.2357 0.577418 12.5658 1.99288 10.2871 C 2.55261 9.38597 3.54947 7.98058 4.23351 7.17036 C 12.3051 -2.39012 26.5487 -2.39012 34.6203 7.17036 C 35.3043 7.98058 36.3013 9.38602 36.8611 10.2872 C 38.2809 12.5726 38.7311 14.2463 38.8356 17.4879 C 38.8698 18.5489 38.8689 20.2712 38.8186 21.3316 C 38.7155 23.5015 38.4295 25.2822 37.9628 26.6615 C 37.6235 27.6643 36.675 29.1145 36.1082 30.0115 C 35.5581 30.882 35.7565 32.2077 36.5142 32.9496 L 50.3879 46.5331 C 51.1581 47.2872 51.2078 48.5126 50.5012 49.3269 L 49.5881 50.379 C 49.2616 50.7552 48.7946 50.9795 48.2975 50.9987 C 47.8004 51.0178 47.3175 50.8303 46.9631 50.4803 L 32.8354 36.5289 C 32.0809 35.7837 30.7352 35.6267 29.8496 36.2088 C 29.8252 36.2248 29.8005 36.241 29.7755 36.2575 C 28.8904 36.8403 27.4531 37.8075 26.4516 38.1434 Z M 28.1459 30.1556 C 30.5818 27.9895 32.4814 24.6185 33.0563 21.4442 C 33.2452 20.4009 33.2499 18.6657 33.0801 17.6188 C 32.155 11.9155 27.2416 6.8389 21.7097 5.86088 C 20.6679 5.67668 18.937 5.67984 17.8919 5.84559 C 14.3009 6.41508 10.7209 8.51272 8.53575 11.3249 C 7.88565 12.1615 7.06636 13.6871 6.68926 14.6785 C 2.43247 25.8696 14.1077 37.0918 24.9217 32.2105 C 25.8868 31.7749 27.3545 30.8593 28.1459 30.1556 Z"/>
</svg>
