<?xml version="1.0" encoding="utf-8"?>
<svg xmlns="http://www.w3.org/2000/svg" viewBox="0 0 60 62">
	<path fill="#000000" d="M 24.395444,0 19.960407,3.1128175 V 8.7543414 L 17.062192,11.164028 9.8915762,8.5657414 6.487178,10.715417 0.00913687,21.500414 0,24.181099 5.9883048,29.445422 v 3.109156 L 0,37.820733 0.00913687,40.499587 6.487178,51.284584 l 1.7012852,1.074837 1.703113,1.074838 3.5853078,-1.300059 3.585308,-1.298228 1.449107,1.204844 1.449108,1.204843 v 2.819846 2.821678 L 22.177012,60.443591 24.395444,62 h 5.544253 5.544252 l 2.218433,-1.556409 2.216605,-1.556408 v -2.821678 -2.819846 l 1.527684,-1.268931 1.525858,-1.270761 2.512639,1.14808 2.512639,1.146249 h 2.360968 2.362794 L 56.361698,46.479859 60,39.957591 59.402449,38.067927 58.80307,36.180095 56.347079,34.566923 53.891088,32.953751 v -3.508329 l 5.988306,-5.264323 -0.0037,-1.340343 -0.0055,-1.340342 L 53.392215,10.715417 49.987817,8.5657414 42.817202,11.164028 39.918987,8.7543414 V 3.1128175 L 35.483949,0 Z m 1.765244,6.0004135 h 7.558018 l 1.226168,7.5000595 7.547056,4.315829 6.95864,-2.80886 3.883169,7.229061 -5.430955,4.339634 v 8.519965 l 5.427301,4.67655 -1.940672,3.610869 -1.938843,3.609037 -6.95864,-2.80886 -3.773529,2.158831 -3.773527,2.156999 -1.226168,7.500059 h -7.558018 l -1.226168,-7.500059 -7.547056,-4.31583 -6.958641,2.80886 -3.883169,-7.22723 5.430955,-4.339634 v -8.849557 l -5.430955,-4.339634 3.883169,-7.229061 6.958641,2.80886 7.547056,-4.315829 z M 30,20.687419 A 10.291771,10.312581 0 0 0 19.708229,31 10.291771,10.312581 0 0 0 30,41.312581 10.291771,10.312581 0 0 0 40.291771,31 10.291771,10.312581 0 0 0 30,20.687419 Z"/>
</svg>
