<?xml version="1.0" encoding="utf-8"?>
<svg xmlns="http://www.w3.org/2000/svg" viewBox="0 0 54 36">
	<path fill="#000000" d="M 38.4636 30 L 51.2128 30 C 51.952 30 52.6609 30.2963 53.1836 30.8238 C 53.7063 31.3512 54 32.0666 54 32.8125 L 54 33.1875 C 54 33.9334 53.7063 34.6488 53.1836 35.1762 C 52.6609 35.7037 51.952 36 51.2128 36 L 38.4636 36 C 37.7244 36 37.0155 35.7037 36.4928 35.1762 C 35.9701 34.6488 35.6764 33.9334 35.6764 33.1875 L 35.6764 32.8125 C 35.6764 32.0666 35.9701 31.3512 36.4928 30.8238 C 37.0155 30.2963 37.7244 30 38.4636 30 Z M 20.6254 15 L 51.2128 15 C 51.952 15 52.6609 15.2963 53.1836 15.8238 C 53.7063 16.3512 54 17.0666 54 17.8125 L 54 18.1875 C 54 18.9334 53.7063 19.6488 53.1836 20.1762 C 52.6609 20.7037 51.952 21 51.2128 21 L 20.6254 21 C 19.8862 21 19.1773 20.7037 18.6546 20.1762 C 18.1319 19.6488 17.8382 18.9334 17.8382 18.1875 L 17.8382 17.8125 C 17.8382 17.0666 18.1319 16.3512 18.6546 15.8238 C 19.1773 15.2963 19.8862 15 20.6254 15 Z M 2.78722 0 L 51.2128 0 C 51.952 4.56745e-17 52.6609 0.296316 53.1836 0.823762 C 53.7063 1.35121 54 2.06658 54 2.8125 L 54 3.1875 C 54 3.93342 53.7063 4.64879 53.1836 5.17624 C 52.6609 5.70368 51.952 6 51.2128 6 L 2.78722 6 C 1.24788 6 -1.66033e-07 4.7408 -1.66033e-07 3.1875 L -1.66033e-07 2.8125 C -1.66033e-07 1.2592 1.24788 5.17767e-09 2.78722 0 Z"/>
</svg>
