<?xml version="1.0" encoding="utf-8"?>
<svg xmlns="http://www.w3.org/2000/svg" viewBox="0 0 48 60">
	<path fill="#000000" d="M 0 55.3125 L 0 19.4966 C -1.22644e-07 18.2961 0.476913 17.1447 1.32583 16.2958 L 16.2958 1.32583 C 17.1447 0.476913 18.2961 -1.06271e-07 19.4966 5.02559e-16 L 43.3125 5.02559e-16 C 44.5557 7.61242e-17 45.748 0.49386 46.6271 1.37294 C 47.5061 2.25201 48 3.4443 48 4.6875 L 48 55.3125 C 48 56.5557 47.5061 57.748 46.6271 58.6271 C 45.748 59.5061 44.5557 60 43.3125 60 L 4.6875 60 C 3.4443 60 2.25201 59.5061 1.37294 58.6271 C 0.49386 57.748 1.52248e-16 56.5557 0 55.3125 Z M 40.125 6 L 21.3874 6 C 20.7874 6 20.2121 6.23941 19.7893 6.66513 L 6.66069 19.8819 C 6.23751 20.3079 6 20.884 6 21.4845 L 6 52.125 C 6 52.6223 6.19754 53.0992 6.54917 53.4508 C 6.90081 53.8025 7.37772 54 7.875 54 L 40.125 54 C 40.6223 54 41.0992 53.8025 41.4508 53.4508 C 41.8025 53.0992 42 52.6223 42 52.125 L 42 7.875 C 42 7.37772 41.8025 6.90081 41.4508 6.54917 C 41.0992 6.19754 40.6223 6 40.125 6 Z M 15 18.1875 L 15 17.2072 C 15 16.5999 15.2041 16.0102 15.5796 15.5329 L 18.5655 11.7369 C 18.9315 11.2716 19.4907 11 20.0827 11 C 20.3286 11.0027 20.5635 11.1029 20.7355 11.2788 C 20.9075 11.4546 21.0027 11.6915 21 11.9375 L 21 18.1875 C 21 18.9334 20.7037 19.6488 20.1762 20.1762 C 19.6488 20.7037 18.9334 21 18.1875 21 L 17.8125 21 C 17.0666 21 16.3512 20.7037 15.8238 20.1762 C 15.2963 19.6488 15 18.9334 15 18.1875 Z M 24 18.1875 L 24 11.5676 C 24 10.8217 24.2963 10.1063 24.8238 9.57887 C 25.3512 9.05143 26.0666 8.75511 26.8125 8.75511 L 27.1875 8.75511 C 27.9334 8.75511 28.6488 9.05143 29.1762 9.57887 C 29.7037 10.1063 30 10.8217 30 11.5676 L 30 18.1875 C 30 18.9334 29.7037 19.6488 29.1762 20.1762 C 28.6488 20.7037 27.9334 21 27.1875 21 L 26.8125 21 C 26.0666 21 25.3512 20.7037 24.8238 20.1762 C 24.2963 19.6488 24 18.9334 24 18.1875 Z M 33 18.1875 L 33 11.5676 C 33 10.8217 33.2963 10.1063 33.8238 9.57887 C 34.3512 9.05143 35.0666 8.75511 35.8125 8.75511 L 36.1875 8.75511 C 36.9334 8.75511 37.6488 9.05143 38.1762 9.57887 C 38.7037 10.1063 39 10.8217 39 11.5676 L 39 18.1875 C 39 18.9334 38.7037 19.6488 38.1762 20.1762 C 37.6488 20.7037 36.9334 21 36.1875 21 L 35.8125 21 C 35.0666 21 34.3512 20.7037 33.8238 20.1762 C 33.2963 19.6488 33 18.9334 33 18.1875 Z"/>
</svg>
