<?xml version="1.0" encoding="utf-8"?>
<svg xmlns="http://www.w3.org/2000/svg" viewBox="0 0 72 48">
	<path display="inline" fill="#000000" fill-opacity="1" d="M 10.084523,46.255702 C 8.6484771,45.541211 7.214283,44.76436 5.9878217,43.727926 4.8387311,42.756874 3.8502194,41.582812 3.0074619,40.334086 2.2855055,39.264351 1.7195138,38.08358 1.2638222,36.874825 0.80369875,35.654315 0.49192682,34.373924 0.27938811,33.086337 0.07853335,31.869532 -0.03480365,30.628607 0.00956839,29.395978 0.06144014,27.955009 0.12322512,27.233074 0.6343588,25.116067 0.97007766,23.72559 1.5533903,22.354474 2.2666709,21.097839 2.994812,19.815022 3.899521,18.619643 4.9318738,17.568641 c 1.1392346,-1.159814 2.4510963,-2.159409 3.8368323,-3.00583 1.1790441,-0.720172 2.4696979,-1.249264 3.7621719,-1.734495 1.266478,-0.475472 3.892354,-1.145709 3.892354,-1.145709 0,0 1.242231,-2.2985831 2.021423,-3.3402096 0.868476,-1.1609817 1.818938,-2.2837664 2.93269,-3.2093679 1.30746,-1.0865855 2.800837,-1.9493062 4.328521,-2.69089 C 27.211534,1.711243 28.798151,1.1211152 30.42493,0.7325618 32.388272,0.26362094 34.416937,0.00211022 36.434956,1.4814327e-5 38.408773,-0.00203469 40.403633,0.20845566 42.314801,0.70430734 44.189407,1.1906727 46.02461,1.9204073 47.694234,2.9055176 c 1.501454,0.8858866 2.847185,2.042625 4.077623,3.280654 1.221519,1.229056 2.306587,2.6074939 3.236022,4.0721554 0.778517,1.226836 1.429746,2.544674 1.934213,3.908604 0.198411,0.536444 0.326998,1.099337 0.423088,1.663441 0.123791,0.726722 0.195271,2.203165 0.195271,2.203165 0,0 2.528063,0.269766 3.722818,0.675066 1.493628,0.506686 2.905337,1.275549 4.210996,2.163391 0.959334,0.652342 1.833005,1.440173 2.618984,2.295267 0.698022,0.759401 1.319867,1.598332 1.837896,2.491527 0.464421,0.800764 0.821774,1.665323 1.121916,2.541736 0.333791,0.974668 0.577211,1.983223 0.747643,2.999679 0.112242,0.669418 0.184537,1.349774 0.178999,2.028607 -0.0068,0.833399 -0.08778,1.671375 -0.260364,2.486551 -0.333732,1.576331 -0.754579,3.164575 -1.487932,4.597772 -0.724798,1.416475 -1.678636,2.742785 -2.822289,3.845431 -1.101125,1.061643 -2.406839,1.934937 -3.793471,2.574927 C 62.188799,47.401273 59.028543,48 59.028543,48 L 36.800156,47.999214 14.571768,47.99843 c 0,0 -3.050155,-1.027718 -4.487245,-1.742728 z"/>
</svg>
