<?xml version="1.0" encoding="utf-8"?>
<svg xmlns="http://www.w3.org/2000/svg" viewBox="0 0 72 48">
	<path display="inline" fill="none" fill-opacity="1" stroke="#000000" stroke-width="5.54942" stroke-linejoin="round" stroke-dasharray="none" stroke-opacity="1" d="M 12.082052,43.682659 C 10.756694,43.050774 9.4330422,42.363736 8.3011122,41.447126 7.2405896,40.588341 6.328269,39.550015 5.550469,38.445657 4.884158,37.499598 4.3617916,36.455339 3.9412229,35.386333 3.516565,34.306929 3.2288231,33.174567 3.032666,32.035841 2.8472924,30.959715 2.7426909,29.862258 2.783643,28.772135 2.8315153,27.497761 2.8885394,26.85929 3.3602771,24.987037 3.6701199,23.757319 4.2084719,22.544721 4.8667755,21.433368 5.538794,20.298859 6.373771,19.241682 7.3265533,18.312189 8.377979,17.286465 9.5887266,16.402436 10.867655,15.653872 c 1.088169,-0.63691 2.279339,-1.104834 3.472194,-1.533964 1.168864,-0.420502 3.592345,-1.013252 3.592345,-1.013252 0,0 1.146485,-2.032837 1.865621,-2.954038 0.801535,-1.0267571 1.67874,-2.0197336 2.706647,-2.8383237 1.206685,-0.960962 2.584957,-1.723941 3.994891,-2.3797885 1.389618,-0.6463954 2.853943,-1.1682969 4.355333,-1.5119286 1.812015,-0.4147252 3.684319,-0.6460022 5.546793,-0.6478552 1.821682,-0.00181 3.662785,0.1843425 5.426645,0.6228672 1.73012,0.4301353 3.42387,1.0755033 4.964804,1.9467223 1.385728,0.7834668 2.627736,1.8064714 3.763333,2.901368 1.12737,1.0869621 2.128803,2.3060345 2.986601,3.6013615 0.71851,1.084998 1.319544,2.250479 1.78513,3.456722 0.183117,0.474423 0.301793,0.972237 0.390478,1.471125 0.11425,0.642703 0.180219,1.94845 0.180219,1.94845 0,0 2.333208,0.238578 3.435876,0.597019 1.378505,0.448107 2.681406,1.128081 3.886426,1.913276 0.885392,0.576923 1.691725,1.27367 2.41712,2.029904 0.644223,0.671604 1.218136,1.413544 1.69624,2.203475 0.428623,0.708184 0.758431,1.472791 1.035441,2.247879 0.308064,0.861984 0.53272,1.753937 0.690017,2.652877 0.103587,0.592025 0.170312,1.193724 0.1652,1.794077 -0.0063,0.737046 -0.08101,1.478141 -0.240294,2.199072 -0.308008,1.394086 -0.696419,2.79871 -1.373245,4.066211 -0.668934,1.252713 -1.549254,2.425683 -2.604759,3.400849 -1.016254,0.938906 -2.221327,1.711235 -3.501081,2.277233 -1.335332,0.590578 -4.252003,1.120084 -4.252003,1.120084 L 36.738528,45.22457 16.223435,45.223909 c 0,0 -2.815057,-0.908901 -4.141383,-1.541248 z"/>
</svg>
