<?xml version="1.0" encoding="utf-8"?>
<svg xmlns="http://www.w3.org/2000/svg" viewBox="0 0 54 36">
	<path stroke-width="8.22799" stroke-linecap="round" stroke-linejoin="round" d="M 3.0331816,0 C 1.3722628,0 0.03513338,1.338 0.03513338,3 c 0,1.662 1.33712942,3 2.99804822,3 H 51.001952 C 52.662871,6 54,4.662 54,3 54,1.338 52.662871,0 51.001952,0 Z m 0,15 c -1.6609188,0 -2.99804822,1.338 -2.99804822,3 0,1.662 1.33712942,3 2.99804822,3 H 51.001952 C 52.662871,21 54,19.662 54,18 54,16.338 52.662871,15 51.001952,15 Z M 2.9980483,30 C 1.3371294,30 0,31.338 0,33 c 0,1.662 1.3371295,3 2.9980483,3 H 50.966819 c 1.660918,0 2.998048,-1.338 2.998048,-3 0,-1.662 -1.33713,-3 -2.998048,-3 z"/>
</svg>
