<?xml version="1.0" encoding="utf-8"?>
<svg xmlns="http://www.w3.org/2000/svg" viewBox="0 0 48 54">
	<path fill="#000000" d="M 17.646484,0 C 16.921084,-0.01242986 16.218866,0.26756975 15.697266,0.77734375 15.175666,1.2871218 14.877534,1.98539 14.865234,2.71875 c 0,0.07458 -0.02983,0.1464787 -0.08203,0.1992188 C 14.731103,2.9706988 14.659638,3 14.585938,3 H 3.2402344 2.9667969 C 2.1799869,3 1.4255026,3.3163962 0.86914062,3.8789062 0.31277562,4.4414163 2.34493e-8,5.2025469 0,5.9980469 c -0.00142701,1.65512 1.3238975,2.99856 2.9609375,3 0.1536,0 0.2792969,0.12595 0.2792969,0.28125 V 49.302734 c 0,2.5885 2.0744756,4.688854 4.6347656,4.689454 L 40.138672,54 c 1.2293,3e-4 2.407944,-0.494347 3.277344,-1.373047 0.8693,-0.8787 1.357422,-2.0696 1.357422,-3.3125 V 9.2792969 c -0.0026,-0.07194 0.02377,-0.1425825 0.07227,-0.1953125 0.0484,-0.05274 0.114347,-0.083298 0.185547,-0.085937 1.6387,0 2.96805,-1.34322 2.96875,-3 3e-4,-0.79538 -0.310988,-1.5565907 -0.867188,-2.1191407 C 46.576612,3.3163662 45.821856,3 45.035156,3 H 44.773438 33.427734 c -0.128,0.02588 -0.253696,-0.05808 -0.279296,-0.1875 0,-0.74579 -0.292954,-1.4609303 -0.814454,-1.98828125 C 31.812384,0.29686675 31.104788,0 30.367188,0 Z m 0.333985,14.751953 h 0.277343 c 0.737601,0 1.445197,0.296819 1.966797,0.824219 0.5216,0.5273 0.814453,1.242481 0.814453,1.988281 v 21.521485 c 0,0.7706 -0.302796,1.509787 -0.841796,2.054687 -0.539,0.545 -1.26905,0.851563 -2.03125,0.851563 h -0.185547 c -0.7623,0 -1.49235,-0.306563 -2.03125,-0.851563 -0.539,-0.5449 -0.841797,-1.284088 -0.841797,-2.054687 V 17.658203 c 0,-0.7707 0.302797,-1.509687 0.841797,-2.054687 0.5389,-0.5449 1.26895,-0.851563 2.03125,-0.851563 z m 11.867187,0 h 0.185547 c 0.7622,0 1.49235,0.306663 2.03125,0.851563 0.539,0.545 0.841797,1.283987 0.841797,2.054687 v 21.427735 c 0,0.7706 -0.302797,1.509787 -0.841797,2.054687 -0.5389,0.545 -1.26905,0.851563 -2.03125,0.851563 h -0.185547 c -0.7622,0 -1.494303,-0.306563 -2.033203,-0.851563 -0.539,-0.5449 -0.841797,-1.284088 -0.841797,-2.054687 V 17.658203 c 0,-0.7707 0.302797,-1.509687 0.841797,-2.054687 0.5389,-0.5449 1.271003,-0.851563 2.033203,-0.851563 z"/>
</svg>
