<?xml version="1.0" encoding="utf-8"?>
<svg xmlns="http://www.w3.org/2000/svg" viewBox="0 0 24 24">
	<path stroke-width="0.025" d="m 12,17 q 0.425,0 0.7125,-0.2875 Q 13,16.425 13,16 13,15.575 12.7125,15.2875 12.425,15 12,15 11.575,15 11.2875,15.2875 11,15.575 11,16 11,16.425 11.2875,16.7125 11.575,17 12,17 Z m -1,-4 h 2 V 7 h -2 z m 1,9 Q 9.925,22 8.1,21.2125 6.275,20.425 4.925,19.075 3.575,17.725 2.7875,15.9 2,14.075 2,12 2,9.925 2.7875,8.1 3.575,6.275 4.925,4.925 6.275,3.575 8.1,2.7875 9.925,2 12,2 14.075,2 15.9,2.7875 17.725,3.575 19.075,4.925 20.425,6.275 21.2125,8.1 22,9.925 22,12 q 0,2.075 -0.7875,3.9 -0.7875,1.825 -2.1375,3.175 -1.35,1.35 -3.175,2.1375 Q 14.075,22 12,22 Z m 0,-2 q 3.35,0 5.675,-2.325 Q 20,15.35 20,12 20,8.65 17.675,6.325 15.35,4 12,4 8.65,4 6.325,6.325 4,8.65 4,12 4,15.35 6.325,17.675 8.65,20 12,20 Z m 0,-8 z"/>
</svg>
