<?xml version="1.0" encoding="UTF-8" standalone="no"?>
<svg
   height="24px"
   viewBox="0 -960 960 960"
   width="24px"
   fill="#000000"
   version="1.1"
   id="svg1"
   sodipodi:docname="file.svg"
   inkscape:version="1.4.2 (ebf0e940d0, 2025-05-08)"
   xmlns:inkscape="http://www.inkscape.org/namespaces/inkscape"
   xmlns:sodipodi="http://sodipodi.sourceforge.net/DTD/sodipodi-0.dtd"
   xmlns="http://www.w3.org/2000/svg"
   xmlns:svg="http://www.w3.org/2000/svg">
  <defs
     id="defs1" />
  <sodipodi:namedview
     id="namedview1"
     pagecolor="#ffffff"
     bordercolor="#000000"
     borderopacity="0.25"
     inkscape:showpageshadow="2"
     inkscape:pageopacity="0.0"
     inkscape:pagecheckerboard="0"
     inkscape:deskcolor="#d1d1d1"
     inkscape:zoom="50.166667"
     inkscape:cx="11.990033"
     inkscape:cy="12"
     inkscape:window-width="2518"
     inkscape:window-height="1412"
     inkscape:window-x="0"
     inkscape:window-y="0"
     inkscape:window-maximized="1"
     inkscape:current-layer="svg1" />
  <path
     d="m 240,-80 c -22,0 -40.83333,-7.833333 -56.5,-23.5 C 167.83333,-119.16667 160,-138 160,-160 v -640 c 0,-22 7.83333,-40.83333 23.5,-56.5 15.66667,-15.66667 34.5,-23.5 56.5,-23.5 h 287 c 10.66667,0 20.83333,2 30.5,6 9.66667,4 18.16667,9.66667 25.5,17 l 194,194 c 7.33333,7.33333 13,15.83333 17,25.5 4,9.66667 6,19.83333 6,30.5 v 447 c 0,22 -7.83333,40.83333 -23.5,56.5 C 760.83333,-87.833333 742,-80 720,-80 Z M 520,-640 V -800 H 240 v 640 H 720 V -600 H 560 c -11.33333,0 -20.83333,-3.83333 -28.5,-11.5 -7.66667,-7.66667 -11.5,-17.16667 -11.5,-28.5 z M 240,-800 v 200 -200 640 z"
     id="path1"
     sodipodi:nodetypes="ssssssssssssssssscccccsssccccc" />
</svg>
