<?xml version="1.0" encoding="utf-8"?>
<svg xmlns="http://www.w3.org/2000/svg" viewBox="0 0 24 24">
	<path stroke-width="0.025" d="m 11.95,18 q 0.525,0 0.8875,-0.3625 Q 13.2,17.275 13.2,16.75 13.2,16.225 12.8375,15.8625 12.475,15.5 11.95,15.5 11.425,15.5 11.0625,15.8625 10.7,16.225 10.7,16.75 q 0,0.525 0.3625,0.8875 Q 11.425,18 11.95,18 Z m -0.9,-3.85 h 1.85 q 0,-0.825 0.1875,-1.3 Q 13.275,12.375 14.15,11.55 14.8,10.9 15.175,10.3125 15.55,9.725 15.55,8.9 15.55,7.5 14.525,6.75 13.5,6 12.1,6 10.675,6 9.7875,6.75 8.9,7.5 8.55,8.55 L 10.2,9.2 Q 10.325,8.75 10.7625,8.225 11.2,7.7 12.1,7.7 q 0.8,0 1.2,0.4375 0.4,0.4375 0.4,0.9625 0,0.5 -0.3,0.9375 -0.3,0.4375 -0.75,0.8125 -1.1,0.975 -1.35,1.475 -0.25,0.5 -0.25,1.825 z M 12,22 Q 9.925,22 8.1,21.2125 6.275,20.425 4.925,19.075 3.575,17.725 2.7875,15.9 2,14.075 2,12 2,9.925 2.7875,8.1 3.575,6.275 4.925,4.925 6.275,3.575 8.1,2.7875 9.925,2 12,2 14.075,2 15.9,2.7875 17.725,3.575 19.075,4.925 20.425,6.275 21.2125,8.1 22,9.925 22,12 q 0,2.075 -0.7875,3.9 -0.7875,1.825 -2.1375,3.175 -1.35,1.35 -3.175,2.1375 Q 14.075,22 12,22 Z m 0,-2 q 3.35,0 5.675,-2.325 Q 20,15.35 20,12 20,8.65 17.675,6.325 15.35,4 12,4 8.65,4 6.325,6.325 4,8.65 4,12 4,15.35 6.325,17.675 8.65,20 12,20 Z m 0,-8 z"/>
</svg>
