<?xml version="1.0" encoding="utf-8"?>
<svg xmlns="http://www.w3.org/2000/svg" viewBox="0 0 24 24">
	<path fill="#000000" d="m 20,12 q 0,0.825 -0.5875,1.4125 Q 18.825,14 18,14 17.175,14 16.5875,13.4125 16,12.825 16,12 16,11.175 16.5875,10.5875 17.175,10 18,10 18.825,10 19.4125,10.5875 20,11.175 20,12 Z m -6,0 q 0,0.825 -0.5875,1.4125 Q 12.825,14 12,14 11.175,14 10.5875,13.4125 10,12.825 10,12 10,11.175 10.5875,10.5875 11.175,10 12,10 12.825,10 13.4125,10.5875 14,11.175 14,12 Z M 8,12 Q 8,12.825 7.4125,13.4125 6.825,14 6,14 5.175,14 4.5875,13.4125 4,12.825 4,12 4,11.175 4.5875,10.5875 5.175,10 6,10 6.825,10 7.4125,10.5875 8,11.175 8,12 Z"/>
</svg>
