<?xml version="1.0" encoding="utf-8"?>
<svg xmlns="http://www.w3.org/2000/svg" viewBox="0 0 24 24">
	<path fill="#000000" d="M 4,17 H 20 V 11 H 4 Z m 13,-1.5 q 0.625,0 1.0625,-0.4375 Q 18.5,14.625 18.5,14 18.5,13.375 18.0625,12.9375 17.625,12.5 17,12.5 16.375,12.5 15.9375,12.9375 15.5,13.375 15.5,14 q 0,0.625 0.4375,1.0625 Q 16.375,15.5 17,15.5 Z M 22,9.0000002 H 19.175 L 17.175,7 H 6.825 l -2,2.0000002 H 2 L 5.425,5.575 Q 5.7,5.3 6.0625,5.15 6.425,5 6.825,5 h 10.35 q 0.4,0 0.7625,0.15 Q 18.3,5.3 18.575,5.575 Z M 4,19 Q 3.175,19 2.5875,18.4125 2,17.825 2,17 V 9.0000002 H 22 V 17 q 0,0.825 -0.5875,1.4125 Q 20.825,19 20,19 Z"/>
</svg>
