<?xml version="1.0" encoding="UTF-8" standalone="no"?><!DOCTYPE svg PUBLIC "-//W3C//DTD SVG 1.1//EN" "http://www.w3.org/Graphics/SVG/1.1/DTD/svg11.dtd"><svg width="100%" height="100%" viewBox="0 0 40 50" version="1.1" xmlns="http://www.w3.org/2000/svg" xmlns:xlink="http://www.w3.org/1999/xlink" xml:space="preserve" xmlns:serif="http://www.serif.com/" style="fill-rule:evenodd;clip-rule:evenodd;stroke-linecap:round;stroke-linejoin:round;stroke-miterlimit:1.5;"><g><path d="M29.25,33.145l0,12.221c0,1.04 -0.84,1.884 -1.875,1.884l-23.25,0c-1.035,0 -1.875,-0.844 -1.875,-1.884l0,-41.443c0,-1.04 0.84,-1.884 1.875,-1.884l23.25,0c1.035,0 1.875,0.844 1.875,1.884l0,11.363" style="fill:none;stroke:#5f6368;stroke-width:4.5px;"/><path d="M2.25,9l27,0" style="fill:none;stroke:#5f6368;stroke-width:4.5px;"/><path d="M17.25,24l20.25,0" style="fill:none;stroke:#5f6368;stroke-width:4.5px;"/><path d="M12.644,25.52c-0.789,-0.86 -0.789,-2.181 -0,-3.041c1.16,-1.265 2.842,-3.101 4.251,-4.637c0.418,-0.456 1.073,-0.609 1.65,-0.384c0.576,0.224 0.956,0.779 0.956,1.398c-0,3.037 -0,7.251 -0,10.288c-0,0.619 -0.38,1.174 -0.956,1.398c-0.576,0.224 -1.232,0.072 -1.65,-0.384c-1.408,-1.536 -3.091,-3.372 -4.251,-4.637Z" style="fill:#5f6368;"/><path d="M2.25,40.5l27,0" style="fill:none;stroke:#5f6368;stroke-width:4.5px;"/></g></svg>