<?xml version="1.0" encoding="UTF-8" standalone="no"?><!DOCTYPE svg PUBLIC "-//W3C//DTD SVG 1.1//EN" "http://www.w3.org/Graphics/SVG/1.1/DTD/svg11.dtd"><svg width="100%" height="100%" viewBox="0 0 40 50" version="1.1" xmlns="http://www.w3.org/2000/svg" xmlns:xlink="http://www.w3.org/1999/xlink" xml:space="preserve" xmlns:serif="http://www.serif.com/" style="fill-rule:evenodd;clip-rule:evenodd;stroke-linecap:round;stroke-linejoin:round;stroke-miterlimit:1.5;"><g><path d="M29.25,40.531l0,4.844c0,1.035 -0.84,1.875 -1.875,1.875l-23.25,0c-1.035,0 -1.875,-0.84 -1.875,-1.875l0,-41.25c0,-1.035 0.84,-1.875 1.875,-1.875l23.25,0c1.035,0 1.875,0.84 1.875,1.875l0,4.125" style="fill:none;stroke:#5f6368;stroke-width:4.5px;"/><path d="M2.25,9l29.25,0" style="fill:none;stroke:#5f6368;stroke-width:4.5px;stroke-linecap:butt;"/><path d="M2.25,40.5l29.25,0" style="fill:none;stroke:#5f6368;stroke-width:4.5px;stroke-linecap:butt;"/><path d="M37.273,25.81l2.271,1.766c0.235,0.168 0.269,0.404 0.101,0.706l-2.17,3.734c-0.135,0.235 -0.353,0.303 -0.656,0.202l-2.674,-1.06c-0.706,0.505 -1.312,0.858 -1.817,1.06l-0.404,2.826c-0.067,0.303 -0.235,0.454 -0.505,0.454l-4.34,0c-0.269,0 -0.437,-0.151 -0.505,-0.454l-0.404,-2.826c-0.639,-0.269 -1.245,-0.622 -1.817,-1.06l-2.674,1.06c-0.303,0.101 -0.521,0.034 -0.656,-0.202l-2.17,-3.734c-0.168,-0.303 -0.135,-0.538 0.101,-0.706l2.271,-1.766c-0.034,-0.235 -0.05,-0.589 -0.05,-1.06c0,-0.471 0.017,-0.824 0.05,-1.06l-2.271,-1.766c-0.235,-0.168 -0.269,-0.404 -0.101,-0.706l2.17,-3.734c0.135,-0.235 0.353,-0.303 0.656,-0.202l2.674,1.06c0.706,-0.505 1.312,-0.858 1.817,-1.06l0.404,-2.826c0.067,-0.303 0.235,-0.454 0.505,-0.454l4.34,0c0.269,0 0.437,0.151 0.505,0.454l0.404,2.826c0.639,0.269 1.245,0.622 1.817,1.06l2.674,-1.06c0.303,-0.101 0.521,-0.034 0.656,0.202l2.17,3.734c0.168,0.303 0.135,0.538 -0.101,0.706l-2.271,1.766c0.034,0.235 0.05,0.589 0.05,1.06c0,0.471 -0.017,0.824 -0.05,1.06Zm-8.023,-5.185c-2.277,0 -4.125,1.848 -4.125,4.125c0,2.277 1.848,4.125 4.125,4.125c2.277,0 4.125,-1.848 4.125,-4.125c0,-2.277 -1.848,-4.125 -4.125,-4.125Z" style="fill:#5f6368;"/></g></svg>