<?xml version="1.0" encoding="UTF-8" standalone="no"?>
<!DOCTYPE svg PUBLIC "-//W3C//DTD SVG 1.1//EN" "http://www.w3.org/Graphics/SVG/1.1/DTD/svg11.dtd">
<svg width="100%" height="100%" viewBox="0 0 42 66" version="1.1" xmlns="http://www.w3.org/2000/svg" xmlns:xlink="http://www.w3.org/1999/xlink" xml:space="preserve" xmlns:serif="http://www.serif.com/" style="fill-rule:evenodd;clip-rule:evenodd;stroke-linecap:round;stroke-linejoin:round;stroke-miterlimit:1.5;">
    <g>
        <path d="M39,5.5L39,60.5C39,61.88 37.88,63 36.5,63L5.5,63C4.12,63 3,61.88 3,60.5L3,5.5C3,4.12 4.12,3 5.5,3L36.5,3C37.88,3 39,4.12 39,5.5Z" style="fill:none;stroke:rgb(95,99,104);stroke-width:6px;"/>
        <path d="M3,12L39,12" style="fill:none;stroke:rgb(95,99,104);stroke-width:6px;"/>
        <g transform="matrix(1,0,0,1,0,42)">
            <path d="M3,12L39,12" style="fill:none;stroke:rgb(95,99,104);stroke-width:6px;"/>
        </g>
        <g transform="matrix(0.75,0,0,0.75,3.75,5.25)">
            <path d="M11,21L19,21" style="fill:none;stroke:rgb(95,99,104);stroke-width:8px;"/>
        </g>
        <g transform="matrix(1.160928,0,0,1.160928,-4.827837,-3.379486)">
            <circle cx="30" cy="21" r="2.647" style="fill:rgb(95,99,104);"/>
        </g>
    </g>
</svg>
