<?xml version="1.0" encoding="utf-8"?>
<svg xmlns="http://www.w3.org/2000/svg" viewBox="0 0 54 54">
	<path fill="#000000" d="M 0 49.3125 L 0 27 L 0 4.6875 C -1.52248e-16 3.4443 0.49386 2.25201 1.37294 1.37294 C 2.25201 0.49386 3.4443 2.28373e-16 4.6875 0 L 49.3125 0 C 50.5557 7.61242e-17 51.748 0.49386 52.6271 1.37294 C 53.5061 2.25201 54 3.4443 54 4.6875 L 54 49.3125 C 54 50.5557 53.5061 51.748 52.6271 52.6271 C 51.748 53.5061 50.5557 54 49.3125 54 L 4.6875 54 C 3.4443 54 2.25201 53.5061 1.37294 52.6271 C 0.49386 51.748 1.52248e-16 50.5557 0 49.3125 Z M 47.0625 6 L 6.9375 6 C 6.68886 6 6.4504 6.09877 6.27459 6.27459 C 6.09877 6.4504 6 6.68886 6 6.9375 L 6 27 L 6 47.0625 C 6 47.3111 6.09877 47.5496 6.27459 47.7254 C 6.4504 47.9012 6.68886 48 6.9375 48 L 47.0625 48 C 47.3111 48 47.5496 47.9012 47.7254 47.7254 C 47.9012 47.5496 48 47.3111 48 47.0625 L 48 6.9375 C 48 6.68886 47.9012 6.4504 47.7254 6.27459 C 47.5496 6.09877 47.3111 6 47.0625 6 Z M 11.2432 27.7615 C 12.2273 26.3045 14.1207 26.1021 15.474 27.3074 C 16.9874 28.6554 18.9143 30.3686 20.3831 31.664 C 20.7714 32.0064 21.3864 31.9895 21.7561 31.6269 L 38.0572 15.641 C 38.9814 14.7347 40.6544 14.501 41.7395 15.2063 C 43.3452 16.2498 43.0872 18.6938 41.4156 20.3169 L 22.4882 38.6939 C 21.7269 39.4331 20.527 39.4681 19.7238 38.7746 L 11.7976 31.9303 C 10.5834 30.8818 10.3452 29.0909 11.2432 27.7615 Z"/>
</svg>
