<?xml version="1.0" encoding="utf-8"?>
<svg xmlns="http://www.w3.org/2000/svg" viewBox="0 0 288 128">
	<path fill="#000000" fill-opacity="0.516457" stroke-width="0.937527" d="m 51.699279,33.806682 c 0.7779,0.1874 1.489,0.5862 2.0546,1.1523 l 25.560601,25.5625 c 1.8349,1.8353 1.846199,4.8071 0.0254,6.6563 l -25.334,25.7402 c -0.8628,0.8762 -2.0438,1.3653 -3.2734,1.3557 -1.2296,-0.0096 -2.402901,-0.517 -3.252,-1.4065 l -0.609401,-0.6367 c -1.807099,-1.8907 -1.790599,-4.8735 0.0371,-6.7442 l 19.556699,-20.0097 c 0.7289,-0.7451 0.7272,-1.9367 -0.0039,-2.6797 l -19.541,-19.8769 c -1.8596,-1.8904 -1.9614,-4.8902 -0.2344,-6.9024 l 0.7012,-0.8164 c 1.0617,-1.2376 2.7272,-1.7762 4.3125,-1.3945 z"/>
	<path fill="#000000" fill-opacity="0.28" stroke-width="0.937527" d="m 130.83301,34.507657 c 1.622,-0.4301 3.351,0.034 4.539,1.2188 l 25.041,24.9609 c 1.834,1.8274 1.839,4.7951 0.012,6.6289 l -25.064,25.1484 c -1.835,1.8403 -4.807,1.8638 -6.67,0.0528 l -0.817,-0.793 c -0.888,-0.8631 -1.393,-2.0457 -1.404,-3.2841 -0.011,-1.2383 0.475,-2.4294 1.348,-3.3077 l 19.548,-19.666 c 0.732,-0.7349 0.732,-1.9233 0,-2.6582 l -19.543,-19.6016 c -0.877,-0.8793 -1.367,-2.0716 -1.364,-3.3136 0.004,-1.2419 0.502,-2.4314 1.384,-3.3055 l 0.879,-0.8711 c 0.586,-0.5807 1.314,-0.9975 2.111,-1.209 z"/>
	<path fill="#000000" stroke-width="5.76673" stroke-linecap="round" stroke-linejoin="round" fill-opacity="1" d="M 64,0 C 28.544,0 0,28.544 0,64 c 0,35.456 28.544,64 64,64 h 160 c 35.456,0 64,-28.544 64,-64 C 288,28.544 259.456,0 224,0 Z M 50.505859,33.68945 c 0.395655,-0.01615 0.797035,0.02177 1.19336,0.11719 0.778,0.1875 1.489087,0.58624 2.054687,1.15234 l 25.560547,25.562504 c 1.83481,1.8353 1.846201,4.80705 0.02539,6.65625 L 54.005859,92.917969 c -0.8629,0.8762 -2.043837,1.365068 -3.273437,1.355469 -1.2296,-0.0096 -2.402853,-0.51675 -3.251953,-1.40625 l -0.609375,-0.636719 c -1.8071,-1.8907 -1.790691,-4.873441 0.03711,-6.744141 l 19.55664,-20.009766 c 0.7289,-0.745099 0.727293,-1.936687 -0.0039,-2.679687 L 46.919922,42.919922 c -1.8595,-1.8904 -1.961475,-4.890142 -0.234375,-6.902342 l 0.701172,-0.81641 c 0.79635,-0.9282 1.932176,-1.46325 3.11914,-1.51172 z m 162.136721,0.44336 c 0.40901,-0.0012 0.82276,0.05038 1.22851,0.15821 0.797,0.2117 1.52338,0.62858 2.10938,1.20898 l 24.90625,24.675781 c 1.057,1.048 1.65325,2.474191 1.65625,3.962891 0.002,1.488698 -0.58763,2.91705 -1.64063,3.96875 l -24.93555,24.884766 c -0.869,0.867899 -2.05325,1.344365 -3.28125,1.322265 -1.229,-0.0221 -2.39347,-0.540953 -3.23046,-1.439453 l -0.8711,-0.933594 c -1.783,-1.9132 -1.72891,-4.89514 0.1211,-6.74414 l 19.74609,-19.736328 c 0.734,-0.7333 0.73681,-1.921457 0.008,-2.660157 L 208.68164,42.755859 c -1.82,-1.8445 -1.80575,-4.813329 0.0312,-6.640629 l 0.61523,-0.60937 c 0.8925,-0.8877 2.08741,-1.36944 3.31446,-1.37305 z m -80.57422,0.21485 c 1.22625,0.0046 2.4215,0.48835 3.3125,1.37695 l 25.04101,24.960937 c 1.834,1.8274 1.83872,4.795106 0.0117,6.628906 l -25.0625,25.148438 c -1.835,1.8403 -4.80692,1.863734 -6.66992,0.05273 l -0.81836,-0.792969 c -0.888,-0.8631 -1.3933,-2.046756 -1.4043,-3.285156 -0.011,-1.2383 0.47661,-2.428341 1.34961,-3.306641 L 147.375,65.464844 c 0.732,-0.7349 0.732,-1.923303 0,-2.658203 L 127.83203,43.205078 c -0.877,-0.8793 -1.36628,-2.072456 -1.36328,-3.314458 0.004,-1.242 0.50081,-2.43058 1.38281,-3.30468 l 0.87891,-0.8711 c 0.586,-0.5807 1.31432,-0.99748 2.11132,-1.20898 0.4055,-0.10753 0.81782,-0.15974 1.22657,-0.1582 z"/>
</svg>
