<?xml version="1.0" encoding="utf-8"?>
<svg xmlns="http://www.w3.org/2000/svg" viewBox="0 0 96 96">
	<path fill-opacity="0.373023" d="M 96 48 C 96 74.5097 74.5097 96 48 96 C 21.4903 96 1.32665e-06 74.5097 7.68e-07 48 C 7.68e-07 35.2696 5.05713 23.0606 14.0589 14.0589 C 23.0606 5.05713 35.2696 7.17078e-07 48 7.68e-07 C 74.5097 1.29819e-06 96 21.4903 96 48 Z" />
	<path fill="#000000" d="M 40.1815 74.5941 C 30.0823 71.4744 21.7559 61.3436 20.6828 50.8698 C 19.1496 35.9048 30.2419 22.2082 45.1302 20.6828 C 60.0952 19.1496 73.7918 30.2419 75.3172 45.1302 C 76.9152 60.7275 65.3491 74.3437 49.7526 75.226 C 46.2543 75.4239 41.9473 75.1395 40.1815 74.5941 Z"/>
</svg>
