<?xml version="1.0" encoding="utf-8"?>
<svg xmlns="http://www.w3.org/2000/svg" viewBox="0 0 60 60">
	<path fill="#000000" d="M 20.4965 58.5427 C 5.94387 53.3599 -2.46473 38.6469 0.642743 23.8035 C 5.51747 0.51844 34.5088 -8.02992 51.4508 8.82225 C 57.607 14.9458 59.9697 20.8035 59.9997 30.0167 C 60.0269 38.3844 58.0894 43.6276 52.4712 50.39 C 45.6959 58.5449 31.0141 62.2884 20.4965 58.5427 Z M 37.2878 53.2347 C 52.2705 49.0944 59.2759 29.8211 50.5146 16.845 C 35.7226 -5.06293 2.28109 8.25657 6.23471 34.4813 C 8.29426 48.1425 23.181 57.1329 37.2878 53.2347 Z M 24.5126 43.7359 C 14.2228 39.2777 12.1475 26.3487 20.5446 19.0151 C 27.0078 13.3703 35.4631 13.9653 41.2036 20.4688 C 46.6084 26.5918 46.324 34.8757 40.52 40.3832 C 35.5859 45.0651 30.1892 46.1954 24.5126 43.7359 Z"/>
</svg>
